# xmcd
#
# Track frame offsets:
#	150
#	23378
#	36725
#	51367
#	65042
#	76758
#	91435
#	107061
#	120720
#	134125
#	148323
#	160767
#	172601
#	186821
#	200495
#	223174
#	237269
#	249988
#
# Disc length: 3495 seconds
#
# Revision: 1
# Processed by: cddbd v1.5.2PL0 Copyright (c) Steve Scherf et al.
# Submitted via: audiograbber 1.83.01
#
DISCID=060da512
DTITLE=John Lee Hooker - Masters of Music [Disc 6]
DYEAR=1900
DGENRE=
TTITLE0=Roll and Rumble
TTITLE1=She was in Chicago
TTITLE2=Playing the Races
TTITLE3=Tease my Baby
TTITLE4=Little Boy Blue
TTITLE5=Mercy Blues
TTITLE6=Questionnaire Blues
TTITLE7=My Baby don't Love Me
TTITLE8=Ground Hog Blues
TTITLE9=Goin South
TTITLE10=I'm Mad
TTITLE11=Howlin Wolf
TTITLE12=Catfish
TTITLE13=Bluebird
TTITLE14=Stand Back
TTITLE15=Turn over a new Leaf
TTITLE16=Everybody's Blues
TTITLE17=High Priced Woman
EXTD=
EXTT0=
EXTT1=
EXTT2=
EXTT3=
EXTT4=
EXTT5=
EXTT6=
EXTT7=
EXTT8=
EXTT9=
EXTT10=
EXTT11=
EXTT12=
EXTT13=
EXTT14=
EXTT15=
EXTT16=
EXTT17=
PLAYORDER=
